<?xml version="1.0" standalone="no"?><!DOCTYPE svg PUBLIC "-//W3C//DTD SVG 1.1//EN" "http://www.w3.org/Graphics/SVG/1.1/DTD/svg11.dtd"><svg t="1696128289979" class="icon" viewBox="0 0 1024 1024" version="1.1" xmlns="http://www.w3.org/2000/svg" p-id="5072" xmlns:xlink="http://www.w3.org/1999/xlink" width="200" height="200"><path d="M799.5 927.3H156.3c-32.3 0-58.5-26.3-58.5-58.5V225.7c0-32.3 26.3-58.5 58.5-58.5h517.4c11.4 0 20.7 9.3 20.7 20.7s-9.3 20.7-20.7 20.7H156.3c-9.4 0-17.1 7.7-17.1 17.1v643.1c0 9.4 7.7 17.1 17.1 17.1h643.1c9.4 0 17.1-7.7 17.1-17.1v-493c0-11.4 9.3-20.7 20.7-20.7s20.7 9.3 20.7 20.7v493c0.1 32.3-26.1 58.5-58.4 58.5z" fill="#bfbfbf" p-id="5073"></path><path d="M552 493.6c-5.3 0-10.6-2-14.6-6.1-8.1-8.1-8.1-21.2 0-29.3l355.3-355.3c8.1-8.1 21.2-8.1 29.3 0 8.1 8.1 8.1 21.2 0 29.3L566.6 487.5c-4.1 4.1-9.4 6.1-14.6 6.1z" fill="#bfbfbf" p-id="5074"></path></svg>