<?xml version="1.0" standalone="no"?><!DOCTYPE svg PUBLIC "-//W3C//DTD SVG 1.1//EN" "http://www.w3.org/Graphics/SVG/1.1/DTD/svg11.dtd"><svg t="1696128311124" class="icon" viewBox="0 0 1024 1024" version="1.1" xmlns="http://www.w3.org/2000/svg" p-id="6126" xmlns:xlink="http://www.w3.org/1999/xlink" width="200" height="200"><path d="M161.792236 534.528584h7.551981-7.551981zM874.238454 149.825545A509.310727 509.310727 0 0 0 511.99936 0.00192a515.198712 515.198712 0 0 0-362.239094 149.759626A510.846723 510.846723 0 0 0 0.00064 512.00064a515.198712 515.198712 0 0 0 149.759626 362.239094C241.408036 968.447499 371.83971 1023.99936 511.99936 1023.99936a510.846723 510.846723 0 0 0 362.239094-149.759626c94.143765-91.711771 149.695626-219.711451 149.695626-362.239094a491.582771 491.582771 0 0 0-149.759625-362.239094z m-55.487861 668.926328a434.366914 434.366914 0 0 1-306.751233 127.99968c-120.703698 0-229.375427-48.319879-306.687233-127.99968a434.366914 434.366914 0 0 1-127.99968-306.687233c0-120.767698 48.319879-229.439426 127.99968-306.751233 79.743801-77.247807 188.415529-127.99968 306.687233-127.99968 118.399704 0 227.007432 48.319879 304.319239 125.631686l2.431994 2.367994a434.366914 434.366914 0 0 1 127.99968 306.751233c0 120.703698-48.319879 229.375427-127.99968 306.687233z m-156.991607-545.790635a64.12784 64.12784 0 0 1 89.343776 0c24.12794 24.12794 24.12794 65.215837 0 86.911782l-147.327631 149.759626 147.327631 149.759626a64.12784 64.12784 0 0 1 0 89.279776 60.03185 60.03185 0 0 1-89.343776 0L514.367354 601.408416l-149.759626 147.263632a60.03185 60.03185 0 0 1-89.279776 0c-26.559934-24.12794-26.559934-62.719843 0-89.343776l149.695625-149.759626-149.759625-149.695626a57.407856 57.407856 0 0 1 0-86.911782 64.12784 64.12784 0 0 1 89.407776 0l149.759626 149.759625 147.199632-149.759625z" fill="#bfbfbf" p-id="6127"></path></svg>