<?xml version="1.0" standalone="no"?><!DOCTYPE svg PUBLIC "-//W3C//DTD SVG 1.1//EN" "http://www.w3.org/Graphics/SVG/1.1/DTD/svg11.dtd"><svg t="1690017663283" class="icon" viewBox="0 0 1024 1024" version="1.1" xmlns="http://www.w3.org/2000/svg" p-id="6150" xmlns:xlink="http://www.w3.org/1999/xlink" width="200" height="200"><path d="M512 1024C229.2736 1024 0 794.7264 0 512s229.2736-512 512-512 512 229.2736 512 512-229.2736 512-512 512z m0-965.9392C261.3248 58.0608 58.0608 261.2224 58.0608 512c0 250.6752 203.264 453.9392 453.9392 453.9392S965.9392 762.6752 965.9392 512 762.6752 58.0608 512 58.0608z m262.2464 582.3488c-7.0656 15.0528-25.088 21.6064-40.1408 14.5408l-240.64-80.4864c-11.4688-5.3248-17.92-17.1008-17.3056-28.9792-0.1024-1.2288-0.7168-2.2528-0.7168-3.4816V209.6128c0-16.6912 13.5168-30.208 30.208-30.208s30.208 13.5168 30.208 30.208V525.312l223.744 74.8544c15.2576 7.0656 21.7088 25.088 14.6432 40.2432z m0 0" fill="#5D5D5D" p-id="6151"></path></svg>